<?xml version="1.0" encoding="UTF-8"?>
  <svg version="1.1" viewBox="0 0 1024 1024" width="48" height="48" xmlns="http://www.w3.org/2000/svg">
  <path transform="translate(242,242)" d="m0 0h540v540h-540z" fill="#FCFCFC"/>
  <path transform="translate(412,334)" d="m0 0h19l20 4 16 7 12 9 6 7 4 8 1 3v12l-1 3 12-3h24l11 3v-17l5-10 11-11 17-9 13-4 13-2h18l16 3 13 5 11 7 9 9 6 12 8 59 1 5 12 7 10 9 8 9 5 11 18 85 1 6v10l-3 12-6 12-9 10-10 9-16 9-17 6-16 3h-32l-20-4-15-6-13-7-11-9-9-10-7-14-2-7v-39l-15 4-6 1h-22l-14-3-6-2-1 36-3 12-6 11-9 10-7 7-13 8-14 6-13 4-12 2h-32l-20-4-15-6-13-7-11-9-8-9-6-10-4-13v-16l12-57 7-32 6-12 9-10 9-7 9-5h2l5-38 3-24 4-11 7-9 10-8 15-7 12-3z" fill="#00342B"/>
  <path transform="translate(376,523)" d="m0 0h23l15 3 14 5 10 6 10 9 5 8 2 7v10l-4 10-9 10-10 7-10 5-15 4-18 2-21-2-16-5-12-6-10-8-7-10-2-6v-13l6-12 9-9 14-8 15-5z" fill="#FCFCFC"/>
  <path transform="translate(626,523)" d="m0 0h23l15 3 16 6 13 9 7 8 4 8 1 5v8l-4 10-6 8-8 7-16 8-14 4-18 2-21-2-16-5-14-7-10-9-6-10-2-11 3-12 8-11 11-8 13-6 15-4z" fill="#FCFCFC"/>
  <path transform="translate(405,640)" d="m0 0h8l12 3 10 6 7 9 3 8-1 4-6 2-6 1h-8l-5-10-6-4h-9l-6 4-4 10v24l4 10 5 4h12l6-5 2-7-15-1-1-2v-11l1-2h36l2 2v42l-2 2h-7l-3-3-3-5-7 6-9 3h-14l-10-3-8-5-7-7-5-10-3-14v-11l3-14 5-10 5-6 11-7 6-2z" fill="#00342B"/>
  <path transform="translate(507,641)" d="m0 0h19l3 1 6 15 16 45 7 19v7l-1 1h-20l-3-3-5-14v-2h-28l-2 9-4 9-1 1h-17l-2-2 1-7 13-36 15-41z" fill="#00342B"/>
  <path transform="translate(589,641)" d="m0 0h66l3 2v15l-1 1h-23v68l-2 2h-20l-1-1-1-68-23-1-2-2v-12z" fill="#00342B"/>
  <path transform="translate(585,289)" d="m0 0h19l13 4 9 7 4 5 2 6 1 12-2 2-11-1-9-1h-13l-15 2-15 4-9 2-3-5v-17l4-7 7-6 11-5z" fill="#00342B"/>
  <path transform="translate(422,289)" d="m0 0h17l11 3 10 5 7 7 3 8-1 16-3 3-6-1-12-4-20-3h-13l-15 2-7-1v-11l3-9 5-6 10-6z" fill="#00342B"/>
  <path transform="translate(405,640)" d="m0 0h8l12 3 10 6 7 9 3 8-1 4-6 2-6 1h-8l-5-10-6-4h-9l-6 4-4 10v24l4 10 5 4h12l6-5 2-7-15-1-1-2v-11l1-2h36l2 2v42l-2 2h-7l-3-3-3-5-7 6-9 3h-14l-10-3-8-5-7-7-5-10-3-14v-11l3-14 5-10 5-6 11-7 6-2zm-4 4-11 4-9 7-6 10-3 11v18l3 12 6 9 8 7 10 4h18l8-4 6-6 3-1 3 9 5 1v-39h-31v9l15 1v8l-4 6-5 4-3 1h-10l-6-3-4-5-3-7-1-6v-18l3-12 5-6 7-3h7l8 4 4 5 2 5h8l7-1-1-6-6-9-9-6-9-3z" fill="#020605"/>
  <path transform="translate(508,484)" d="m0 0h9l12 3 8 6 3 4 1 6-3 7-5 5-9 4-4 1h-14l-10-3-8-6-3-6v-6l4-7 10-6z" fill="#FCFCFC"/>
  <path transform="translate(507,641)" d="m0 0h19l3 1 6 15 16 45 7 19v7l-1 1h-20l-3-3-5-14v-2h-28l-2 9-4 9-1 1h-17l-2-2 1-7 13-36 15-41zm0 4-13 36-15 42v2h14l6-17 1-1h31l6 17 1 1h17l-9-27-18-50-2-3z" fill="#020706"/>
  <path transform="translate(589,641)" d="m0 0h66l3 2v15l-1 1h-23v68l-2 2h-20l-1-1-1-68-23-1-2-2v-12zm0 4v11l24 1 1 68h17v-69h24v-11z" fill="#020606"/>
  <path transform="translate(514,662)" d="m0 0 4 2 9 25-1 5h-22l-1-5 9-24z" fill="#020404"/>
  <path transform="translate(515,669)" d="m0 0 2 3 6 16v3h-16l3-10z" fill="#FCFCFC"/>
</svg>
